<?xml version="1.0" encoding="UTF-8"?>
<svg width="32px" height="32px" viewBox="0 0 32 32" version="1.1" xmlns="http://www.w3.org/2000/svg" xmlns:xlink="http://www.w3.org/1999/xlink">
    <!-- Generator: Sketch 64 (93537) - https://sketch.com -->
    <title>dice</title>
    <desc>Created with Sketch.</desc>
    <g id="dice" stroke="none" stroke-width="1" fill="none" fill-rule="evenodd">
        <path d="M22.546512,4.10065939 L22.6557994,4.14603742 L22.6557994,4.14603742 L22.7554814,4.20687601 L22.7554814,4.20687601 L22.8431607,4.28039443 L22.8431607,4.28039443 L22.9134464,4.35810819 L22.9134464,4.35810819 L22.9826491,4.46042025 L29.3558757,15.6022238 C29.4405733,15.7227405 29.4937939,15.8663802 29.5,16.0207754 L29.4995197,16.091826 L29.4995197,16.091826 C29.4946066,16.2471544 29.4423317,16.3915551 29.3583298,16.5129572 L23.0660851,27.6257706 L23.0660851,27.6257706 L23.0033089,27.7139676 L23.0033089,27.7139676 L22.9277403,27.7942965 L22.9277403,27.7942965 L22.8463261,27.859886 L22.8463261,27.859886 L22.73732,27.9241734 L22.73732,27.9241734 L22.6681207,27.9526476 L22.6681207,27.9526476 L22.5824391,27.9788367 L22.5824391,27.9788367 L22.4809814,27.9957804 L22.3963763,28 L9.75080103,27.9428975 C9.59554312,27.9578 9.43596257,27.9272663 9.29452349,27.8417476 C9.1512519,27.7598827 9.04553654,27.6347472 8.98035852,27.4906933 L2.57721231,16.2894196 L2.57721231,16.2894196 C2.54539547,16.2222085 2.52396553,16.153743 2.51177194,16.0852398 L2.5,15.9600166 L2.5,15.9600166 L2.50197111,15.8817056 L2.50197111,15.8817056 L2.51556834,15.785116 L2.51556834,15.785116 L2.53614821,15.7047286 L2.53614821,15.7047286 L2.57747063,15.5983818 L2.57747063,15.5983818 L2.60644948,15.5424189 L8.88957793,4.44148561 C8.9367953,4.34270865 9.00330249,4.25339118 9.08783615,4.18159454 L9.20518565,4.099516 L9.20518565,4.099516 L9.2347993,4.08461643 C9.36619448,4.01430962 9.51115279,3.99011586 9.65256643,4.00355068 L22.3505863,4.06315957 L22.3505863,4.06315957 L22.4500055,4.0756714 L22.4500055,4.0756714 L22.546512,4.10065939 L22.546512,4.10065939 Z M18.4149848,23.9217219 L8.06121834,17.8256865 L10.2490815,26.1545172 L18.4149848,23.9217219 Z M6.19256326,16.9262661 L4.71265958,16.83568 L7.40634888,21.5458119 L6.19256326,16.9262661 Z M20.1131193,25.1223368 L15.5832096,26.3601404 L20.9305387,26.3853428 L20.1131193,25.1223368 Z M7.46295377,10.1774469 L4.60841129,15.2197061 L6.20162948,15.31677 L7.46295377,10.1774469 Z M22.3551243,25.6673399 L25.2093381,20.6258736 L21.4755849,24.309688 L22.3551243,25.6673399 Z M19.65825,22.7979352 L19.5543177,9.71824291 L8.39410966,16.1658947 L19.65825,22.7979352 Z M18.3824558,8.54755009 L10.1537397,5.83585709 L8.01864892,14.5357146 L18.3824558,8.54755009 Z M21.1335573,10.1673289 L21.2303641,22.3144378 L27.5507429,16.0787718 L21.1335573,10.1673289 Z M20.9405261,5.66194674 L14.6651176,5.63345137 L19.9675557,7.38052778 L20.9405261,5.66194674 Z M22.3052184,6.46544297 L21.3322479,8.18402401 L25.4671215,11.9933977 L22.3052184,6.46544297 Z" id="Shape" fill="#000000" fill-rule="nonzero"></path>
    </g>
</svg>